<svg width="356" height="356" viewBox="0 0 356 356" fill="none" xmlns="http://www.w3.org/2000/svg">
<mask id="mask0_23_81" style="mask-type:alpha" maskUnits="userSpaceOnUse" x="17" y="17" width="322" height="322">
<rect x="17" y="17" width="322" height="322" rx="21.7732" fill="#CFCFCF"/>
</mask>
<g mask="url(#mask0_23_81)">
<path d="M339 275.928V162.935C339 162.935 317.423 3.33549 189.232 131.526C114.928 205.83 17 95.1363 17 215.664V275.928H339Z" fill="#FFB25B"/>
<path d="M17 339V234.433C17 234.433 106.098 84.403 168.041 153.933C265.39 263.205 271.605 129.571 339 178L339 339H17Z" fill="#F9639B"/>
<path d="M339 339V288.765C339 288.765 331.048 185.166 239.412 214.134C200.368 226.477 171.116 276.104 129.087 276.104C83.3918 276.104 17 197.56 17 202.897V339H339Z" fill="#9033DF"/>
</g>
</svg>
