<svg width="432" height="96" viewBox="0 0 432 96" fill="none" xmlns="http://www.w3.org/2000/svg">
<g clip-path="url(#clip0_40_2)">
<path d="M167.857 79L147.313 53.8452V79H135.989V22.5433H147.313V47.8598L167.857 22.5433H181.527L158.232 50.529L182.174 79H167.857ZM200.946 19.1462V79H189.622V19.1462H200.946ZM217.876 28.8522C215.881 28.8522 214.209 28.2321 212.861 26.9919C211.567 25.6977 210.92 24.107 210.92 22.2198C210.92 20.3325 211.567 18.7687 212.861 17.5285C214.209 16.2344 215.881 15.5873 217.876 15.5873C219.871 15.5873 221.516 16.2344 222.81 17.5285C224.158 18.7687 224.832 20.3325 224.832 22.2198C224.832 24.107 224.158 25.6977 222.81 26.9919C221.516 28.2321 219.871 28.8522 217.876 28.8522ZM223.457 34.1905V79H212.133V34.1905H223.457ZM276.3 55.6247C276.3 57.2423 276.192 58.6982 275.976 59.9924H243.219C243.488 63.2277 244.621 65.7621 246.616 67.5954C248.611 69.4288 251.064 70.3455 253.976 70.3455C258.182 70.3455 261.175 68.5391 262.954 64.9263H275.168C273.873 69.2401 271.393 72.7989 267.726 75.6029C264.06 78.3529 259.557 79.728 254.219 79.728C249.905 79.728 246.023 78.7843 242.572 76.897C239.174 74.9558 236.505 72.2327 234.564 68.7278C232.677 65.2228 231.733 61.1787 231.733 56.5953C231.733 51.9579 232.677 47.8868 234.564 44.3818C236.451 40.8769 239.094 38.1808 242.491 36.2935C245.888 34.4062 249.797 33.4626 254.219 33.4626C258.479 33.4626 262.28 34.3792 265.623 36.2126C269.02 38.046 271.636 40.6612 273.469 44.0583C275.356 47.4015 276.3 51.2569 276.3 55.6247ZM264.572 52.3893C264.518 49.4775 263.466 47.1588 261.417 45.4333C259.368 43.6539 256.861 42.7642 253.895 42.7642C251.091 42.7642 248.719 43.6269 246.777 45.3524C244.89 47.024 243.731 49.3697 243.3 52.3893H264.572ZM309.397 33.5434C314.735 33.5434 319.049 35.242 322.338 38.6391C325.627 41.9823 327.272 46.6735 327.272 52.7128V79H315.948V54.2496C315.948 50.6908 315.058 47.9677 313.279 46.0804C311.499 44.1392 309.073 43.1686 305.999 43.1686C302.872 43.1686 300.391 44.1392 298.558 46.0804C296.779 47.9677 295.889 50.6908 295.889 54.2496V79H284.565V34.1905H295.889V39.7715C297.399 37.8303 299.313 36.3205 301.632 35.242C304.004 34.1096 306.593 33.5434 309.397 33.5434ZM351.224 43.4921V65.1689C351.224 66.6787 351.575 67.7841 352.276 68.4851C353.03 69.1322 354.271 69.4557 355.996 69.4557H361.254V79H354.136C344.592 79 339.819 74.3627 339.819 65.088V43.4921H334.481V34.1905H339.819V23.1095H351.224V34.1905H361.254V43.4921H351.224ZM382.582 43.4921V65.1689C382.582 66.6787 382.933 67.7841 383.634 68.4851C384.389 69.1322 385.629 69.4557 387.354 69.4557H392.612V79H385.494C375.95 79 371.178 74.3627 371.178 65.088V43.4921H365.839V34.1905H371.178V23.1095H382.582V34.1905H392.612V43.4921H382.582ZM406.499 28.8522C404.504 28.8522 402.832 28.2321 401.484 26.9919C400.19 25.6977 399.543 24.107 399.543 22.2198C399.543 20.3325 400.19 18.7687 401.484 17.5285C402.832 16.2344 404.504 15.5873 406.499 15.5873C408.494 15.5873 410.139 16.2344 411.433 17.5285C412.781 18.7687 413.455 20.3325 413.455 22.2198C413.455 24.107 412.781 25.6977 411.433 26.9919C410.139 28.2321 408.494 28.8522 406.499 28.8522ZM412.08 34.1905V79H400.756V34.1905H412.08Z" fill="black"/>
<path d="M167.857 79L147.313 53.8452V79H135.989V22.5433H147.313V47.8598L167.857 22.5433H181.527L158.232 50.529L182.174 79H167.857ZM200.946 19.1462V79H189.622V19.1462H200.946ZM217.876 28.8522C215.881 28.8522 214.209 28.2321 212.861 26.9919C211.567 25.6977 210.92 24.107 210.92 22.2198C210.92 20.3325 211.567 18.7687 212.861 17.5285C214.209 16.2344 215.881 15.5873 217.876 15.5873C219.871 15.5873 221.516 16.2344 222.81 17.5285C224.158 18.7687 224.832 20.3325 224.832 22.2198C224.832 24.107 224.158 25.6977 222.81 26.9919C221.516 28.2321 219.871 28.8522 217.876 28.8522ZM223.457 34.1905V79H212.133V34.1905H223.457ZM276.3 55.6247C276.3 57.2423 276.192 58.6982 275.976 59.9924H243.219C243.488 63.2277 244.621 65.7621 246.616 67.5954C248.611 69.4288 251.064 70.3455 253.976 70.3455C258.182 70.3455 261.175 68.5391 262.954 64.9263H275.168C273.873 69.2401 271.393 72.7989 267.726 75.6029C264.06 78.3529 259.557 79.728 254.219 79.728C249.905 79.728 246.023 78.7843 242.572 76.897C239.174 74.9558 236.505 72.2327 234.564 68.7278C232.677 65.2228 231.733 61.1787 231.733 56.5953C231.733 51.9579 232.677 47.8868 234.564 44.3818C236.451 40.8769 239.094 38.1808 242.491 36.2935C245.888 34.4062 249.797 33.4626 254.219 33.4626C258.479 33.4626 262.28 34.3792 265.623 36.2126C269.02 38.046 271.636 40.6612 273.469 44.0583C275.356 47.4015 276.3 51.2569 276.3 55.6247ZM264.572 52.3893C264.518 49.4775 263.466 47.1588 261.417 45.4333C259.368 43.6539 256.861 42.7642 253.895 42.7642C251.091 42.7642 248.719 43.6269 246.777 45.3524C244.89 47.024 243.731 49.3697 243.3 52.3893H264.572ZM309.397 33.5434C314.735 33.5434 319.049 35.242 322.338 38.6391C325.627 41.9823 327.272 46.6735 327.272 52.7128V79H315.948V54.2496C315.948 50.6908 315.058 47.9677 313.279 46.0804C311.499 44.1392 309.073 43.1686 305.999 43.1686C302.872 43.1686 300.391 44.1392 298.558 46.0804C296.779 47.9677 295.889 50.6908 295.889 54.2496V79H284.565V34.1905H295.889V39.7715C297.399 37.8303 299.313 36.3205 301.632 35.242C304.004 34.1096 306.593 33.5434 309.397 33.5434ZM351.224 43.4921V65.1689C351.224 66.6787 351.575 67.7841 352.276 68.4851C353.03 69.1322 354.271 69.4557 355.996 69.4557H361.254V79H354.136C344.592 79 339.819 74.3627 339.819 65.088V43.4921H334.481V34.1905H339.819V23.1095H351.224V34.1905H361.254V43.4921H351.224ZM382.582 43.4921V65.1689C382.582 66.6787 382.933 67.7841 383.634 68.4851C384.389 69.1322 385.629 69.4557 387.354 69.4557H392.612V79H385.494C375.95 79 371.178 74.3627 371.178 65.088V43.4921H365.839V34.1905H371.178V23.1095H382.582V34.1905H392.612V43.4921H382.582ZM406.499 28.8522C404.504 28.8522 402.832 28.2321 401.484 26.9919C400.19 25.6977 399.543 24.107 399.543 22.2198C399.543 20.3325 400.19 18.7687 401.484 17.5285C402.832 16.2344 404.504 15.5873 406.499 15.5873C408.494 15.5873 410.139 16.2344 411.433 17.5285C412.781 18.7687 413.455 20.3325 413.455 22.2198C413.455 24.107 412.781 25.6977 411.433 26.9919C410.139 28.2321 408.494 28.8522 406.499 28.8522ZM412.08 34.1905V79H400.756V34.1905H412.08Z" fill="white"/>
<mask id="mask0_40_2" style="mask-type:alpha" maskUnits="userSpaceOnUse" x="11" y="-7" width="87" height="87">
<rect x="11" y="-6.41174" width="86.1176" height="86.1176" rx="14.205" fill="#CFCFCF"/>
</mask>
<g mask="url(#mask0_40_2)">
<path d="M97.1176 62.8374V32.6178C97.1176 32.6178 91.3469 -10.0663 57.0629 24.2177C37.1904 44.0901 11 14.4854 11 46.72V62.8374H97.1176Z" fill="#FFB25B"/>
<path d="M11 79.7058V51.7398C11 51.7398 34.8289 11.6148 51.3954 30.2103C77.4309 59.4347 79.0931 23.6948 97.1176 36.647L97.1176 79.7058H11Z" fill="#F9639B"/>
<path d="M97.1177 79.706V66.2708C97.1177 66.2708 94.991 38.5635 70.4833 46.311C60.0411 49.6121 52.2178 62.8846 40.9774 62.8846C28.7562 62.8846 11 41.8784 11 43.3057V79.706H97.1177Z" fill="#9033DF"/>
</g>
</g>
<defs>
<clipPath id="clip0_40_2">
<rect width="432" height="96" fill="white"/>
</clipPath>
</defs>
</svg>
